<svg xmlns="http://www.w3.org/2000/svg" width="349.51" height="73.72" viewBox="0 0 349.51 73.72"><title>logo</title><path d="M322.28,44.74l22.7-.62v-11l-22.7-.61ZM349.49,5.06q-15.69-1.23-30-1.23a17.39,17.39,0,0,0-11.2,3.7q-4.65,3.69-4.65,12.14v38.7q0,9.3,5.07,12.35a22.85,22.85,0,0,0,11.82,3,262.45,262.45,0,0,0,29-1.46V60.61H323.3q-5.81,0-5.81-6.17V44.87h0V32.39h0v-10c0-3.81,2-5.72,6.1-5.72h25.92ZM228.16,37.4a11.85,11.85,0,0,0,7.17-5.18,18.29,18.29,0,0,0,2.54-10.13q0-18.27-19.91-18.26H190.51V56.18h14V43.33h14.34a7.63,7.63,0,0,1,5.8,2.31,8.65,8.65,0,0,1,2.23,6.27q0,9.17-8,9.16h-9.54V73.63h9.87q10.47,0,15.7-4.43t5.26-14.81q0-7.26-3.45-11.52A15.48,15.48,0,0,0,228.16,37.4Zm-5.34-7.07a5.71,5.71,0,0,1-4.76,2.26H204.48V16.37h13.41a6.41,6.41,0,0,1,4.85,1.87c1.23,1.24,1.84,3.28,1.84,6.05A9.72,9.72,0,0,1,222.82,30.33ZM190.51,61H172.24q-6.24,0-6.17-6.17v-51H152v53.3q0,8.77,4.07,12.64t12.44,3.86h35.92V61h-14ZM285.4,37.4a11.81,11.81,0,0,0,7.17-5.18,18.28,18.28,0,0,0,2.6-10.1q0-18.3-20-18.29H247.76V16.37h27.35A6.45,6.45,0,0,1,280,18.24c1.22,1.26,1.84,3.28,1.84,6.05a9.76,9.76,0,0,1-1.74,6,5.72,5.72,0,0,1-4.78,2.26H261.72V21.17h-14V73.63h28.67q10.49,0,15.72-4.43t5.23-14.81q0-7.26-3.44-11.52a15.46,15.46,0,0,0-8.54-5.47Zm-9.34,23.69H261.72V43.33h14.34a7.63,7.63,0,0,1,5.8,2.31,8.7,8.7,0,0,1,2.2,6.33Q284.06,61.11,276.06,61.09Z" fill="#037e81"/><path d="M60.82,60.92h0a13.42,13.42,0,0,0-3.08-5.54,14.56,14.56,0,0,0-1.48-2A14.33,14.33,0,0,0,54.75,52c-1-.87-2.11-1.58-3.38-2.66A27.22,27.22,0,0,0,48.18,47l-.63-.42-1.16-.75a14.2,14.2,0,0,1-1.75-1.24,17.16,17.16,0,0,1-2.11-1.89l-1.85-.23-1.24-.16-1.17-.19-4.79-.6h-.32c-3.32-.44-6.52-.86-8.5-1.1a1.35,1.35,0,0,1-.76.31c-.44,0-.72-.33-.68-.92a2.72,2.72,0,0,1,.31-1.05.5.5,0,0,1,.1-.19c.08-.16.22-.38.4-.66s.4-.6.65-1C28.15,31.84,39,18.21,54.59,12.11l1.63-.87h0l.64-.34h0l.54-.3h0c.39-.21.72-.4,1.08-.56h0L59,9.78h0a24.07,24.07,0,0,1,4.23-1.39h0A64,64,0,0,1,81.42,5.72h0A91.76,91.76,0,0,1,110,9.09,79.77,79.77,0,0,0,73,0C40.12,0,12,19.63.4,47.45L.18,48c-.3.9-.21,1.63.21,1.88a11.56,11.56,0,0,0,2.88,0c8.2,1,13.67,4.13,21.29,7.32.55.18,18.62,6,36.68,5.54Z" fill="#024c4e"/><path d="M81.47,5.68h0A63.67,63.67,0,0,0,63.28,8.36h0A24.42,24.42,0,0,0,59,9.74h0l-.53.26h0c-.35.17-.69.36-1.07.57h0l-.54.3h0l-.65.33h0L54.59,12C39,18.12,28.15,31.77,24.68,36.8c-.26.39-.48.7-.65,1a7.68,7.68,0,0,0-.4.67.4.4,0,0,0-.1.18,2.77,2.77,0,0,0-.31,1c0,.59.24,1,.68.93a1.35,1.35,0,0,0,.76-.31c2,.23,5.18.65,8.5,1.1h.32l4.83.63,1.18.13,1.24.16,1.85.24a17.26,17.26,0,0,0,2,2c.58.44,1.16.84,1.75,1.23l1.16.76.63.42a26.13,26.13,0,0,1,3.19,2.34c1.23,1.08,2.36,1.79,3.38,2.66a13,13,0,0,1,3,3.43,13.42,13.42,0,0,1,3.08,5.54h0l.45,1.76h.1a52.59,52.59,0,0,0,18.11-3.32l-.28-.9h0c-.22-.36-.45-.72-.66-1.09a37.41,37.41,0,0,1-2.55-5.3c-1.79-4.86-2.56-4.62-3.52-6.84-5.84-6.86-5.38-6.62-6.85-7.86a112.07,112.07,0,0,1-13.23-5.32c-1.58.39-1.94-.35-1.72-.63C51.32,30,62,23.52,69.14,21.8c.79-.68,1.59-1.31,2.47-1.93a43.63,43.63,0,0,1,7.94-4.74h.08l1.24-.55.14-.06L82.25,14h0A43.92,43.92,0,0,1,94.7,11.38a48.27,48.27,0,0,1,20.84,3.36c1.31.52,2.47,1.1,3.7,1.69l1.37.74.22.13q.69.4,1.32.81l.25.15.79.52c.55.33,1.09.7,1.62,1.06l.79.55h0c.51.39,1,.76,1.5,1.15s1.24,1.05,1.8,1.58l2.34,2a78.81,78.81,0,0,0-21-16A92,92,0,0,0,81.47,5.68Z" fill="#037e81"/><path d="M127,21.5c-.48-.4-1-.76-1.51-1.14h0l-.79-.56c-.53-.36-1.06-.73-1.62-1.06l-.79-.52-.24-.15c-.42-.27-.87-.54-1.32-.81l-.23-.12c-.44-.25-.89-.5-1.37-.74a35.29,35.29,0,0,0-3.7-1.69,48.76,48.76,0,0,0-9.11-2.65,48,48,0,0,0-11.72-.72A43.92,43.92,0,0,0,82.14,14h0l-1.24.51-.14.06-1.24.56h-.08a43,43,0,0,0-8,4.77c-.82.62-1.62,1.24-2.47,1.93C61.91,23.52,51.19,30,50.45,31.44c-.22.28.14,1,1.72.63a113,113,0,0,0,13.41,5.32c1.53,1.23,1.07,1,6.85,7.84,1,2.22,1.72,2,3.51,6.83a36.45,36.45,0,0,0,2.56,5.3c.21.37.43.73.65,1.09h0l.35.85h.09c1.1-.45,2.17-.94,3.2-1.48C87.56,55.28,91.29,53,94.34,51l.12-.08c-.32-.77-.64-1.56-.95-2.47A29.47,29.47,0,0,0,83.76,36.7a7.09,7.09,0,0,0-1.9-1.15,116.09,116.09,0,0,0-11.48-3.82c-1.9,0-1.76-1.24-.16-1.55A128.45,128.45,0,0,1,89.28,27.9c1.23,0,2.38-.13,3.61-.16,0,0,14.38-10.54,37.13.38h0c.62.28,1.24.57,1.82.88h0c.57.3,1.13.59,1.7.91l.36.21c.45.26.91.52,1.35.79s1.16.73,1.73,1.11h0l-1.48-1.73c-1.41-1.81-2.9-3.55-4.45-5.24l-2.34-2C128.21,22.55,127.62,22,127,21.5Z" fill="#95c121"/><path d="M135.31,31,134,30.19l-.36-.21c-.57-.32-1.14-.61-1.7-.91h0c-.59-.31-1.23-.59-1.81-.88h0c-22.76-10.92-37.14-.38-37.14-.38-1.23,0-2.47.1-3.62.16A129.51,129.51,0,0,0,70.2,30.31c-1.59.26-1.74,1.55.16,1.55a114.38,114.38,0,0,1,11.48,3.82,6.57,6.57,0,0,1,1.9,1.15A29.56,29.56,0,0,1,93.5,48.61c.31.85.63,1.64,1,2.47,9.72-6.44,12-10.31,17-13h0a38.85,38.85,0,0,1,6.48-3.56A32.69,32.69,0,0,1,136.17,32h.18l.82.18-.09-.1h0A10.67,10.67,0,0,0,135.31,31Z" fill="#d9e6b1"/></svg>